<?xml version="1.0" encoding="utf-8"?>
<!-- Generator: Adobe Illustrator 25.2.1, SVG Export Plug-In . SVG Version: 6.00 Build 0)  -->
<svg version="1.1" id="Ebene_1" xmlns="http://www.w3.org/2000/svg" xmlns:xlink="http://www.w3.org/1999/xlink" x="0px" y="0px"
	 viewBox="0 0 128 128" style="enable-background:new 0 0 128 128;" xml:space="preserve">
<style type="text/css">
	.st0{fill:#006C8C;}
</style>
<path class="st0" d="M24.9,68.2c5.8-6.6,12.7-9.6,20.8-9.6s15,2.7,20.4,8.9c5.4,5.8,8.5,12.7,8.5,20.8s-2.7,15-8.5,20.8
	c-5.8,5.8-12.3,8.9-20.4,8.9s-15-3.5-20.8-10.4v8.5h-8.5V39.3h8.5V68.2L24.9,68.2z M45.3,109.9c5.8,0,10.8-2.3,14.7-6.6
	s6.2-9.3,6.2-15c0-5.8-1.9-10.8-5.8-15s-8.9-6.6-14.7-6.6s-11.2,1.9-15,5.8c-3.9,4.2-6.2,9.3-6.2,15c0,5.8,1.9,11.2,6.2,15.4
	C34.5,107.6,39.5,109.9,45.3,109.9z"/>
<path class="st0" d="M16.4,17.7h23.1c35.5,0,64.4,28.9,64.4,64.4c0,12.7-3.5,24.3-10,34.3h8.9c5.4-10,8.9-22,8.9-34.3
	c0-39.7-32.4-72.1-72.1-72.1H16.4C16.4,10,16.4,17.7,16.4,17.7z"/>
</svg>
