<?xml version="1.0" encoding="utf-8"?>
<!-- Generator: Adobe Illustrator 25.2.1, SVG Export Plug-In . SVG Version: 6.00 Build 0)  -->
<svg version="1.1" id="Ebene_1" xmlns="http://www.w3.org/2000/svg" xmlns:xlink="http://www.w3.org/1999/xlink" x="0px" y="0px"
	 viewBox="0 0 64 64" style="enable-background:new 0 0 64 64;" xml:space="preserve">
<style type="text/css">
	.st0{fill:#FFFFFF;}
</style>
<path class="st0" d="M12.3,34.1c2.9-3.3,6.4-4.9,10.5-4.9s7.6,1.4,10.3,4.5c2.7,2.9,4.3,6.4,4.3,10.5s-1.4,7.6-4.3,10.5
	s-6.2,4.5-10.3,4.5s-7.6-1.7-10.5-5.2v4.3H8V19.6h4.3V34.1L12.3,34.1z M22.6,55.1c2.9,0,5.4-1.2,7.4-3.3c1.9-2.1,3.1-4.7,3.1-7.6
	c0-2.9-1-5.4-2.9-7.6c-1.9-2.1-4.5-3.3-7.4-3.3s-5.6,1-7.6,2.9c-1.9,2.1-3.1,4.7-3.1,7.6s1,5.6,3.1,7.8C17.1,54,19.7,55.1,22.6,55.1
	z"/>
<path class="st0" d="M8,8.7h11.7c17.9,0,32.5,14.6,32.5,32.5c0,6.4-1.7,12.2-5.1,17.3h4.5c2.7-5.1,4.5-11.1,4.5-17.3
	c0-20-16.3-36.3-36.3-36.3H8C8,4.8,8,8.7,8,8.7z"/>
</svg>
