<svg id="belboon_Logo" data-name="belboon Logo" xmlns="http://www.w3.org/2000/svg" width="200" height="67.839" viewBox="0 0 200 67.839">
  <g id="Gruppe_201" data-name="Gruppe 201" transform="translate(88.504 56.161)">
    <path id="Pfad_687" data-name="Pfad 687" d="M794.361,753.739H795.5v.551a4.551,4.551,0,0,1-.026.475h.026a2.354,2.354,0,0,1,2.18-1.18c1.743,0,2.845,1.385,2.845,3.4,0,2.064-1.244,3.4-2.936,3.4a2.258,2.258,0,0,1-1.987-1.064h-.025s.025.231.025.564v2.91h-1.243Zm3.039,5.576c1.025,0,1.871-.846,1.871-2.32,0-1.41-.756-2.32-1.833-2.32-.974,0-1.872.679-1.872,2.333C795.566,758.161,796.207,759.315,797.4,759.315Z" transform="translate(-794.361 -751.111)" fill="#006c8c"/>
    <path id="Pfad_688" data-name="Pfad 688" d="M807.455,756.175h.282v-.116a1.26,1.26,0,0,0-1.423-1.422,3.289,3.289,0,0,0-1.808.628l-.513-.911a4.069,4.069,0,0,1,2.423-.769,2.3,2.3,0,0,1,2.564,2.538v4.1h-1.154v-.615a4.718,4.718,0,0,1,.026-.513h-.026a2.243,2.243,0,0,1-2.076,1.282,2.03,2.03,0,0,1-2.206-1.974C803.544,756.264,806.365,756.175,807.455,756.175Zm-1.436,3.2a1.966,1.966,0,0,0,1.731-2.064v-.205h-.321c-.935,0-2.628.064-2.628,1.231A1.087,1.087,0,0,0,806.019,759.379Z" transform="translate(-796.19 -751.111)" fill="#006c8c"/>
    <path id="Pfad_689" data-name="Pfad 689" d="M812.888,753.758h1.205v1.128a4.672,4.672,0,0,1-.026.487h.026a2.083,2.083,0,0,1,2.371-1.667v1.23a1.827,1.827,0,0,0-.359-.038,1.966,1.966,0,0,0-1.82,1.526,3.944,3.944,0,0,0-.155,1.166v2.653h-1.244Z" transform="translate(-798.05 -751.13)" fill="#006c8c"/>
    <path id="Pfad_690" data-name="Pfad 690" d="M819.255,754.424h-.846v-1h.885v-1.872H820.5v1.872h1.564v1H820.5v2.884a1.289,1.289,0,0,0,1.384,1.462,1.5,1.5,0,0,0,.3-.026v1.1a3.428,3.428,0,0,1-.436.026,2.236,2.236,0,0,1-2.487-2.423Z" transform="translate(-799.15 -750.706)" fill="#006c8c"/>
    <path id="Pfad_691" data-name="Pfad 691" d="M832.34,753.585a3.4,3.4,0,1,1-3.5,3.384A3.383,3.383,0,0,1,832.34,753.585Zm0,5.717a2.322,2.322,0,1,0-2.23-2.333A2.241,2.241,0,0,0,832.34,759.3Z" transform="translate(-801.227 -751.111)" fill="#006c8c"/>
    <path id="Pfad_692" data-name="Pfad 692" d="M839.839,754.214h-.807v-1h.807v-.307a2.209,2.209,0,0,1,2.436-2.41,2.717,2.717,0,0,1,.474.038V751.6a1.753,1.753,0,0,0-.32-.026,1.233,1.233,0,0,0-1.359,1.359v.282h1.538v1H841.07v5.4h-1.231Z" transform="translate(-803.256 -750.496)" fill="#006c8c"/>
    <path id="Pfad_693" data-name="Pfad 693" d="M851.968,752.986a2.158,2.158,0,0,1,2,1.026h.026a3.688,3.688,0,0,1-.026-.436v-3h1.244v9.05h-1.18v-.615c0-.256.013-.436.013-.436h-.026a2.272,2.272,0,0,1-2.128,1.205c-1.755,0-2.858-1.385-2.858-3.4C849.032,754.318,850.25,752.986,851.968,752.986Zm.167,5.717c.961,0,1.872-.68,1.872-2.333,0-1.153-.6-2.308-1.834-2.308-1.025,0-1.871.846-1.871,2.321C850.3,757.793,851.057,758.7,852.135,758.7Z" transform="translate(-805.248 -750.512)" fill="#006c8c"/>
    <path id="Pfad_694" data-name="Pfad 694" d="M862.1,753.585a2.761,2.761,0,0,1,2.807,3.038c0,.167-.039.539-.039.539h-4.731a2.121,2.121,0,0,0,2.231,2.141,3.092,3.092,0,0,0,1.922-.756l.513.91a3.862,3.862,0,0,1-2.513.923,3.3,3.3,0,0,1-3.435-3.4A3.179,3.179,0,0,1,862.1,753.585Zm1.538,2.64a1.53,1.53,0,0,0-1.564-1.653,1.859,1.859,0,0,0-1.9,1.653Z" transform="translate(-807.204 -751.111)" fill="#006c8c"/>
    <path id="Pfad_695" data-name="Pfad 695" d="M868.661,754.424h-.846v-1h.885v-1.872h1.205v1.872h1.563v1h-1.563v2.884a1.289,1.289,0,0,0,1.384,1.462,1.5,1.5,0,0,0,.295-.026v1.1a3.406,3.406,0,0,1-.436.026,2.236,2.236,0,0,1-2.487-2.423Z" transform="translate(-808.988 -750.706)" fill="#006c8c"/>
    <path id="Pfad_696" data-name="Pfad 696" d="M877.757,756.175h.282v-.116a1.26,1.26,0,0,0-1.422-1.422,3.289,3.289,0,0,0-1.808.628l-.513-.911a4.068,4.068,0,0,1,2.423-.769,2.3,2.3,0,0,1,2.564,2.538v4.1h-1.154v-.615a4.707,4.707,0,0,1,.026-.513h-.026a2.243,2.243,0,0,1-2.076,1.282,2.03,2.03,0,0,1-2.206-1.974C873.847,756.264,876.668,756.175,877.757,756.175Zm-1.436,3.2a1.966,1.966,0,0,0,1.732-2.064v-.205h-.321c-.935,0-2.628.064-2.628,1.231A1.086,1.086,0,0,0,876.321,759.379Z" transform="translate(-810.189 -751.111)" fill="#006c8c"/>
    <path id="Pfad_697" data-name="Pfad 697" d="M883.176,750.576h1.256v1.269h-1.256Zm.012,2.564h1.244v6.486h-1.244Z" transform="translate(-812.047 -750.512)" fill="#006c8c"/>
    <path id="Pfad_698" data-name="Pfad 698" d="M887.3,750.576h1.243v7.063c0,.782.307.923.693.923a1.978,1.978,0,0,0,.218-.013v1.1a3.514,3.514,0,0,1-.411.026c-.7,0-1.743-.192-1.743-1.821Z" transform="translate(-812.869 -750.512)" fill="#006c8c"/>
    <path id="Pfad_699" data-name="Pfad 699" d="M893.042,750.576h1.333l2.076,4.9c.206.5.449,1.218.449,1.218h.026s.244-.718.448-1.218l2.077-4.9h1.333l.73,9.05h-1.257l-.448-5.7c-.038-.551-.013-1.333-.013-1.333h-.026s-.269.833-.487,1.333L897.478,758H896.35l-1.795-4.076c-.206-.487-.488-1.358-.488-1.358h-.026s.013.807-.026,1.358l-.436,5.7h-1.269Z" transform="translate(-813.866 -750.512)" fill="#006c8c"/>
  </g>
  <g id="Gruppe_202" data-name="Gruppe 202" transform="translate(0.098 12.65)">
    <path id="Pfad_700" data-name="Pfad 700" d="M683.975,696.166h3.376v12.115c0,1.142-.1,2.036-.1,2.036h.1s2.085-4.816,8.491-4.816c6.7,0,10.873,5.362,10.873,13.107,0,7.894-4.717,13.059-11.271,13.059a9.106,9.106,0,0,1-8.193-4.867h-.1a19.311,19.311,0,0,1,.1,2.036v2.234h-3.276ZM695.2,728.688c4.419,0,8.043-3.724,8.043-10.08,0-6.107-3.227-10.028-7.894-10.028-4.171,0-8.094,2.978-8.094,10.078C687.251,723.673,689.833,728.688,695.2,728.688Z" transform="translate(-683.975 -696.166)" fill="#006c8c"/>
    <path id="Pfad_701" data-name="Pfad 701" d="M730.2,707.822c6.9,0,10.427,5.312,10.427,11.519,0,.6-.1,1.737-.1,1.737H721.364c.149,6.405,4.518,9.88,9.682,9.88a11.612,11.612,0,0,0,7.6-3.028l1.539,2.582a14.314,14.314,0,0,1-9.236,3.476,12.624,12.624,0,0,1-13.057-13.059C717.889,712.737,723.449,707.822,730.2,707.822Zm7,10.476c-.2-5.214-3.376-7.647-7.1-7.647-4.171,0-7.8,2.632-8.59,7.647Z" transform="translate(-690.728 -698.487)" fill="#006c8c"/>
    <path id="Pfad_702" data-name="Pfad 702" d="M753.6,696.166h3.376v28.251c0,3.277,1.49,3.774,2.781,3.774a7.548,7.548,0,0,0,.843-.05v3.03a8.529,8.529,0,0,1-1.241.1c-2.086,0-5.76-.646-5.76-6.107Z" transform="translate(-697.84 -696.166)" fill="#006c8c"/>
    <path id="Pfad_703" data-name="Pfad 703" d="M768.789,696.166h3.376v12.115c0,1.142-.1,2.036-.1,2.036h.1s2.086-4.816,8.491-4.816c6.7,0,10.873,5.362,10.873,13.107,0,7.894-4.717,13.059-11.271,13.059a9.106,9.106,0,0,1-8.193-4.867h-.1a19.323,19.323,0,0,1,.1,2.036v2.234h-3.277Zm11.221,32.522c4.42,0,8.044-3.724,8.044-10.08,0-6.107-3.227-10.028-7.894-10.028-4.171,0-8.094,2.978-8.094,10.078C772.066,723.673,774.648,728.688,780.01,728.688Z" transform="translate(-700.864 -696.166)" fill="#006c8c"/>
    <path id="Pfad_704" data-name="Pfad 704" d="M814.987,707.822a12.6,12.6,0,0,1,12.548,12.958c0,7.547-5.614,13.208-12.548,13.208s-12.547-5.661-12.547-13.208A12.6,12.6,0,0,1,814.987,707.822Zm0,23.136c5.1,0,9.246-4.369,9.246-10.178,0-5.66-4.151-9.879-9.246-9.879s-9.245,4.22-9.245,9.879C805.742,726.59,809.893,730.958,814.987,730.958Z" transform="translate(-707.565 -698.487)" fill="#006c8c"/>
    <path id="Pfad_705" data-name="Pfad 705" d="M851.21,707.822a12.6,12.6,0,0,1,12.548,12.958c0,7.547-5.613,13.208-12.548,13.208s-12.547-5.661-12.547-13.208A12.6,12.6,0,0,1,851.21,707.822Zm0,23.136c5.1,0,9.246-4.369,9.246-10.178,0-5.66-4.151-9.879-9.246-9.879s-9.245,4.22-9.245,9.879C841.965,726.59,846.117,730.958,851.21,730.958Z" transform="translate(-714.778 -698.487)" fill="#006c8c"/>
    <path id="Pfad_706" data-name="Pfad 706" d="M877.32,708.417h3.327v3.724c0,1.092-.1,1.986-.1,1.986h.1a10.631,10.631,0,0,1,9.98-6.305c6.157,0,8.342,3.525,8.342,9.682v15.888h-3.376V718.4c0-3.923-.6-7.4-5.412-7.4a9.491,9.491,0,0,0-9.086,7.049,12.357,12.357,0,0,0-.4,3.376v11.966H877.32Z" transform="translate(-722.476 -698.487)" fill="#006c8c"/>
  </g>
  <path id="Pfad_707" data-name="Pfad 707" d="M877.252,698.626c5.3,10.378,3.38,22.7-1.141,29.275h3.961a33.965,33.965,0,0,0,.175-30.805c-5.508-10.785-16.583-16.725-31.187-16.725H683.852v3.363H849.06C866.077,683.734,873.783,691.832,877.252,698.626Z" transform="translate(-683.852 -680.371)" fill="#50dca0"/>
</svg>
