<?xml version="1.0" encoding="UTF-8"?>
<svg width="256px" height="256px" viewBox="0 0 256 256" version="1.1" xmlns="http://www.w3.org/2000/svg" xmlns:xlink="http://www.w3.org/1999/xlink">
    <!-- Generator: Sketch 63.1 (92452) - https://sketch.com -->
    <title>Artboard</title>
    <desc>Created with Sketch.</desc>
    <g id="Artboard" stroke="none" stroke-width="1" fill="none" fill-rule="evenodd">
        <g id="belboon_Logo_kompakt" transform="translate(43.000000, 32.000000)" fill="#006C8C" fill-rule="nonzero">
            <path d="M15.0429553,103.043202 C25.3075601,91.386277 37.5189003,86.0876747 51.8539519,86.0876747 C66.1890034,86.0876747 78.4003436,90.8564168 87.9570447,101.806861 C97.5137457,112.050826 103,124.237611 103,138.543837 C103,152.850064 98.2216495,165.036849 87.9570447,175.280813 C77.6924399,185.524778 66.1890034,191 51.8539519,191 C37.5189003,191 25.3075601,184.818297 15.0429553,172.631512 L15.0429553,187.644219 L0,187.644219 L0,52 L15.0429553,52 L15.0429553,103.043202 L15.0429553,103.043202 Z M51.1460481,176.693774 C61.4106529,176.693774 70.2594502,172.631512 77.161512,165.036849 C84.0635739,157.442186 88.1340206,148.611182 88.1340206,138.543837 C88.1340206,128.299873 84.7714777,119.468869 77.8694158,112.050826 C70.967354,104.632783 62.1185567,100.393901 51.8539519,100.393901 C41.5893471,100.393901 32.032646,103.749682 25.3075601,110.637865 C18.4054983,118.055909 14.3350515,127.063532 14.3350515,137.130877 C14.3350515,147.374841 17.6975945,156.912325 25.3075601,164.330368 C32.032646,172.631512 40.8814433,176.693774 51.1460481,176.693774 Z" id="Shape"></path>
            <path d="M0,13.6052632 L40.9643232,13.6052632 C103.918153,13.6052632 155.167891,64.6691729 155.167891,127.394737 C155.167891,149.834586 148.961175,170.330827 137.434418,188 L153.217209,188 C162.793284,170.330827 169,149.12782 169,127.394737 C169,57.2481203 111.543547,0 41.1416579,0 L0,0 C0,0 0,13.6052632 0,13.6052632 Z" id="Path"></path>
        </g>
    </g>
</svg>